<?xml version="1.0" standalone="no"?>
<!DOCTYPE svg PUBLIC "-//W3C//DTD SVG 20010904//EN"
 "http://www.w3.org/TR/2001/REC-SVG-20010904/DTD/svg10.dtd">
<svg version="1.0" xmlns="http://www.w3.org/2000/svg"
 width="1592.000000pt" height="1592.000000pt" viewBox="0 0 1592.000000 1592.000000"
 preserveAspectRatio="xMidYMid meet">
<metadata>
Created by potrace 1.11, written by Peter Selinger 2001-2013
</metadata>
<g transform="translate(0.000000,1592.000000) scale(0.100000,-0.100000)"
fill="#000000" stroke="none">
<path d="M6990 14579 c-8 -5 -94 -42 -190 -83 -872 -369 -1357 -724 -1462
-1071 -15 -50 -21 -98 -21 -170 -1 -187 27 -319 103 -472 43 -87 64 -116 143
-196 50 -52 146 -138 212 -192 66 -55 136 -115 156 -134 20 -20 108 -106 195
-191 322 -315 539 -470 831 -593 70 -30 82 -32 85 -18 3 13 2 3100 -1 3124 -1
10 -33 8 -51 -4z"/>
<path d="M3292 14493 c2 -5 37 -76 78 -158 82 -164 93 -191 109 -248 8 -33 8
-37 -7 -33 -88 26 -424 93 -563 112 -15 2 -45 7 -68 13 -49 11 -52 4 -8 -26
17 -12 43 -33 57 -45 14 -13 55 -45 90 -73 109 -84 121 -94 253 -222 208 -203
322 -362 353 -495 2 -10 6 -28 10 -40 17 -72 24 -224 13 -311 -8 -61 -29 -84
-188 -195 -240 -169 -350 -263 -495 -427 -175 -198 -255 -387 -243 -575 7
-113 36 -189 96 -249 58 -60 104 -86 192 -111 122 -34 304 -9 384 52 109 84
149 149 240 383 53 137 65 161 101 202 48 52 107 76 194 76 90 1 128 -14 206
-86 62 -56 109 -124 150 -212 51 -111 56 -131 41 -147 -12 -12 -155 -246 -171
-278 -4 -8 -27 -51 -52 -95 -133 -236 -262 -540 -316 -745 -54 -205 -63 -422
-33 -835 4 -55 9 -116 11 -135 2 -19 6 -132 9 -250 5 -233 -3 -304 -49 -449
-58 -182 -136 -348 -281 -596 -29 -49 -65 -110 -79 -135 -109 -188 -215 -440
-242 -580 -3 -14 -10 -45 -15 -70 -31 -134 -42 -237 -43 -410 0 -124 9 -294
18 -309 2 -3 6 -29 10 -58 22 -185 138 -503 267 -733 18 -32 25 -57 23 -85 -5
-78 -5 -541 0 -640 9 -148 14 -225 21 -291 3 -32 8 -77 10 -99 10 -101 17
-162 21 -185 2 -14 11 -70 19 -125 8 -55 18 -111 20 -125 3 -14 7 -36 10 -50
2 -14 10 -57 19 -95 8 -39 17 -82 19 -95 19 -98 81 -320 137 -490 36 -109 38
-123 45 -285 3 -93 8 -186 10 -205 1 -19 6 -70 10 -113 4 -43 8 -88 10 -100 2
-12 9 -56 15 -97 31 -200 104 -441 171 -570 16 -30 29 -58 29 -63 0 -15 104
-173 152 -232 52 -63 133 -137 202 -184 138 -95 355 -168 643 -216 18 -3 77
-28 133 -55 198 -99 458 -188 653 -224 160 -29 177 -31 307 -43 153 -13 500
-7 596 11 10 2 44 7 74 11 128 16 366 76 530 134 340 118 656 313 1025 630
195 168 299 267 779 746 365 363 573 563 726 695 52 46 109 95 125 110 97 85
512 423 615 500 19 14 138 108 264 209 520 415 757 639 953 901 91 122 273
411 273 434 0 5 8 20 18 34 40 60 144 319 178 447 33 124 46 261 59 620 4 121
8 225 9 230 4 26 32 75 43 76 7 1 16 2 21 3 4 1 23 6 42 10 61 14 192 83 275
145 211 160 380 370 497 618 59 125 87 199 188 498 128 378 177 485 307 662
106 146 297 309 455 389 138 70 337 102 408 67 109 -55 87 -244 -65 -555 -45
-90 -103 -194 -137 -245 -15 -23 -28 -45 -28 -50 0 -4 -14 -26 -30 -47 -17
-22 -30 -44 -30 -48 0 -22 136 88 250 202 117 117 208 231 260 325 12 22 30
54 41 71 32 53 87 206 104 293 36 175 1 316 -104 418 -52 51 -173 118 -240
134 -81 20 -180 38 -236 44 -65 7 -274 8 -315 1 -14 -3 -47 -7 -75 -11 -216
-27 -445 -143 -632 -321 -54 -52 -78 -79 -158 -175 -51 -63 -166 -264 -262
-459 -58 -118 -120 -245 -138 -281 -79 -160 -158 -270 -225 -312 l-25 -16 -23
131 c-13 72 -19 134 -14 137 24 17 54 76 69 137 13 53 17 118 18 275 l1 206
36 49 c20 27 42 69 51 93 18 55 14 138 -8 181 -16 32 -16 32 16 64 59 57 98
126 116 201 12 54 11 176 -2 227 l-15 56 30 32 c58 62 75 155 75 405 0 351
-41 523 -148 623 -58 55 -192 117 -296 137 -119 24 -332 24 -511 0 -19 -2 -60
-7 -90 -10 -30 -4 -66 -8 -80 -10 -14 -2 -49 -7 -78 -10 -30 -3 -104 -15 -165
-25 -62 -11 -125 -22 -142 -25 -30 -5 -63 -12 -100 -20 -40 -8 -340 -76 -355
-80 -8 -3 -80 -20 -160 -40 -80 -19 -172 -42 -205 -50 -33 -9 -69 -18 -80 -20
-11 -3 -60 -14 -110 -25 -208 -47 -322 -72 -345 -76 -14 -2 -47 -9 -75 -14
-115 -23 -207 -40 -243 -45 -67 -8 -119 -16 -144 -21 -15 -3 -42 -7 -60 -9
-18 -1 -64 -6 -103 -10 -38 -3 -81 -9 -95 -12 -41 -9 -620 -11 -690 -3 -36 5
-92 11 -125 14 -95 10 -200 27 -330 53 -66 13 -131 26 -145 29 -137 26 -543
157 -665 213 -11 6 -69 31 -130 56 -103 44 -353 166 -437 213 -37 21 -69 41
-176 109 -116 75 -221 167 -476 417 -66 65 -184 174 -262 242 -244 213 -348
329 -417 469 -82 165 -99 260 -101 547 0 126 -4 228 -7 228 -12 0 -234 -181
-298 -243 -75 -73 -172 -217 -226 -337 -39 -87 -115 -309 -115 -335 0 -21 -7
-19 -49 14 -251 197 -659 121 -992 -186 l-63 -58 36 55 c19 30 55 87 80 125
61 94 108 191 148 303 17 51 52 123 77 159 86 129 157 305 171 428 10 89 6
254 -8 332 -47 251 -192 476 -383 591 -51 31 -281 132 -300 132 -5 0 -7 -3 -5
-7z m1780 -4476 c40 -20 96 -57 123 -83 50 -48 115 -124 115 -135 0 -4 -28 8
-62 26 -127 68 -185 78 -456 81 -134 1 -246 4 -248 7 -15 14 170 122 227 132
18 3 35 8 38 10 2 3 46 3 97 2 83 -3 100 -7 166 -40z m3473 -1121 c116 -25
254 -109 345 -210 19 -22 40 -44 45 -50 66 -71 157 -272 179 -396 6 -30 -1
-24 -51 50 -157 230 -386 396 -598 435 -50 9 -88 15 -125 20 -50 7 -264 7
-297 0 l-28 -6 35 31 c66 59 200 120 290 133 36 5 170 0 205 -7z m-3875 -20
c137 -24 311 -148 422 -302 58 -80 131 -229 163 -334 30 -96 46 -248 25 -235
-7 4 -42 30 -77 57 -97 73 -229 135 -328 153 -84 15 -107 17 -193 19 -103 3
-249 -12 -397 -40 -75 -14 -175 -14 -209 0 -35 15 -38 20 -39 61 0 119 104
348 210 460 84 89 187 149 274 161 24 4 45 7 47 9 3 3 60 -2 102 -9z m3600
-1156 c264 -75 479 -297 579 -595 16 -49 32 -102 35 -118 2 -15 7 -35 10 -45
28 -89 46 -373 31 -478 -9 -59 -34 -144 -56 -186 l-20 -39 -77 53 c-47 32
-162 138 -296 271 -203 202 -280 268 -363 310 -30 16 -149 51 -208 62 -109 19
-375 25 -575 11 -189 -13 -315 -15 -330 -6 -11 7 -11 14 0 42 39 98 282 374
442 502 142 114 318 197 488 231 91 18 247 11 340 -15z m-3983 -2477 c26 -20
68 -55 93 -78 25 -24 63 -58 85 -76 22 -19 42 -37 45 -40 12 -13 273 -228 455
-374 110 -88 234 -193 275 -234 134 -132 246 -206 405 -266 134 -50 306 -79
465 -78 66 0 253 14 261 18 3 2 27 6 55 10 85 10 241 42 554 114 96 22 189 42
205 45 17 2 50 8 75 11 25 4 54 9 65 11 11 2 47 6 80 9 33 3 83 7 110 11 64 8
308 13 340 6 14 -2 25 -7 25 -11 0 -11 -115 -135 -250 -271 -105 -104 -182
-177 -389 -370 -162 -150 -425 -347 -593 -443 -176 -101 -417 -196 -563 -222
-16 -2 -41 -7 -54 -10 -85 -17 -309 -23 -392 -10 -19 3 -50 7 -69 10 -44 6
-90 14 -112 21 -9 3 -25 6 -35 8 -46 10 -145 53 -215 94 -72 42 -244 201 -310
286 -12 16 -32 40 -45 54 -12 13 -41 49 -65 80 -24 32 -46 59 -49 62 -14 12
-171 253 -224 345 -136 237 -258 549 -281 720 -3 22 -7 46 -10 53 -10 31 -19
188 -19 337 0 157 7 215 24 215 5 0 31 -17 58 -37z"/>
<path d="M15570 10563 c0 -7 9 -50 19 -95 31 -135 43 -250 43 -395 1 -106 -18
-236 -33 -231 -7 3 -132 115 -214 193 -107 102 -285 266 -311 289 l-32 26 39
-110 c37 -105 92 -307 104 -380 3 -19 8 -42 11 -51 2 -10 6 -30 9 -45 2 -16 6
-42 9 -59 31 -177 41 -444 21 -575 -17 -110 -22 -130 -57 -219 -119 -304 -417
-499 -770 -506 -68 -2 -144 3 -180 10 -35 8 -64 12 -66 10 -10 -10 53 -74 104
-105 86 -52 167 -69 304 -66 124 4 165 12 305 58 207 68 418 195 585 353 95
90 136 138 247 291 59 80 160 324 177 425 3 19 10 57 15 84 10 50 8 372 -2
411 -3 12 -8 39 -11 60 -13 79 -53 221 -68 239 -4 5 -8 15 -8 23 0 20 -75 166
-119 231 -48 70 -120 150 -121 134z"/>
</g>
</svg>
